<?xml version="1.0" standalone="no"?>
<!DOCTYPE svg PUBLIC "-//W3C//DTD SVG 20010904//EN"
 "http://www.w3.org/TR/2001/REC-SVG-20010904/DTD/svg10.dtd">
<svg version="1.0" xmlns="http://www.w3.org/2000/svg"
 width="512.000000pt" height="512.000000pt" viewBox="0 0 512.000000 512.000000"
 preserveAspectRatio="xMidYMid meet">
<metadata>
Created by potrace 1.14, written by Peter Selinger 2001-2017
</metadata>
<g transform="translate(0.000000,512.000000) scale(0.100000,-0.100000)"
fill="#000000" stroke="none">
<path d="M1347 4763 c-1 0 -22 -4 -47 -7 -25 -3 -62 -10 -82 -16 -21 -6 -40
-11 -43 -11 -12 1 -125 -66 -166 -98 -61 -48 -132 -138 -168 -214 -62 -131
-59 -33 -57 -1883 l1 -1689 24 -65 c21 -61 59 -139 72 -150 3 -3 10 -13 15
-22 19 -35 109 -121 163 -155 65 -42 156 -77 226 -88 68 -11 2974 -13 3004 -3
13 5 30 16 36 25 9 12 12 521 12 2157 1 1178 -2 2154 -4 2169 -3 15 -15 33
-27 39 -16 9 -382 12 -1489 13 -808 0 -1469 -1 -1470 -2z"/>
</g>
</svg>
